<?xml version="1.0" encoding="UTF-8" standalone="no"?>
<!DOCTYPE svg PUBLIC "-//W3C//DTD SVG 1.1//EN" "http://www.w3.org/Graphics/SVG/1.1/DTD/svg11.dtd">
<svg width="100%" height="100%" viewBox="0 0 1500 49" version="1.1" xmlns="http://www.w3.org/2000/svg" xmlns:xlink="http://www.w3.org/1999/xlink" xml:space="preserve" xmlns:serif="http://www.serif.com/" style="fill-rule:evenodd;clip-rule:evenodd;stroke-linejoin:round;stroke-miterlimit:2;">
    <path d="M0,40C0,40 27.882,29.441 93,24.5C158.118,19.559 235.176,37.853 311,40C386.824,42.147 579.059,23.618 650,34C720.941,44.382 844.964,48.437 872,47C899.036,45.563 1045.59,28.03 1120,29C1194.41,29.97 1433.84,48.296 1467,46C1500.16,43.704 1537.67,28.438 1550,18C1562.33,7.562 1371,-85 1371,-85L1094,-71L430,-82L-56,-60L-43,9L0,40Z" style="fill:rgb(111,78,55,0.99);"/>
</svg>
